<svg width="25" height="25" viewBox="0 0 25 25" fill="none" xmlns="http://www.w3.org/2000/svg">
<g id="Icon Left">
<path id="Vector" d="M19.5 21.5V5.5C19.5 4.96957 19.2893 4.46086 18.9142 4.08579C18.5391 3.71071 18.0304 3.5 17.5 3.5H7.5C6.96957 3.5 6.46086 3.71071 6.08579 4.08579C5.71071 4.46086 5.5 4.96957 5.5 5.5V21.5M19.5 21.5H5.5M19.5 21.5H21.5M19.5 21.5H14.5M5.5 21.5H3.5M5.5 21.5H10.5M14.5 21.5V16.5C14.5 16.2348 14.3946 15.9804 14.2071 15.7929C14.0196 15.6054 13.7652 15.5 13.5 15.5H11.5C11.2348 15.5 10.9804 15.6054 10.7929 15.7929C10.6054 15.9804 10.5 16.2348 10.5 16.5V21.5M14.5 21.5H10.5M9.5 7.5H10.5M9.5 11.5H10.5M14.5 7.5H15.5M14.5 11.5H15.5" stroke="#6B6F80" stroke-width="1.5" stroke-linecap="round" stroke-linejoin="round"/>
</g>
</svg>
