<svg width="25" height="25" viewBox="0 0 25 25" fill="none" xmlns="http://www.w3.org/2000/svg">
<g id="Icon Left">
<path id="Vector" d="M17.5 20.5H22.5V18.5C22.5 17.8765 22.3057 17.2686 21.9441 16.7606C21.5826 16.2527 21.0718 15.87 20.4827 15.6658C19.8937 15.4615 19.2556 15.4459 18.6573 15.621C18.0589 15.7962 17.53 16.1534 17.144 16.643M17.5 20.5H7.5M17.5 20.5V18.5C17.5 17.844 17.374 17.217 17.144 16.643M17.144 16.643C16.7726 15.715 16.1318 14.9195 15.304 14.3591C14.4762 13.7988 13.4996 13.4993 12.5 13.4993C11.5004 13.4993 10.5238 13.7988 9.696 14.3591C8.86825 14.9195 8.22736 15.715 7.856 16.643M7.5 20.5H2.5V18.5C2.50005 17.8765 2.69434 17.2686 3.05586 16.7606C3.41739 16.2527 3.92819 15.87 4.51725 15.6658C5.10632 15.4615 5.74438 15.4459 6.34274 15.621C6.9411 15.7962 7.47003 16.1534 7.856 16.643M7.5 20.5V18.5C7.5 17.844 7.626 17.217 7.856 16.643M15.5 7.5C15.5 8.29565 15.1839 9.05871 14.6213 9.62132C14.0587 10.1839 13.2956 10.5 12.5 10.5C11.7044 10.5 10.9413 10.1839 10.3787 9.62132C9.81607 9.05871 9.5 8.29565 9.5 7.5C9.5 6.70435 9.81607 5.94129 10.3787 5.37868C10.9413 4.81607 11.7044 4.5 12.5 4.5C13.2956 4.5 14.0587 4.81607 14.6213 5.37868C15.1839 5.94129 15.5 6.70435 15.5 7.5ZM21.5 10.5C21.5 11.0304 21.2893 11.5391 20.9142 11.9142C20.5391 12.2893 20.0304 12.5 19.5 12.5C18.9696 12.5 18.4609 12.2893 18.0858 11.9142C17.7107 11.5391 17.5 11.0304 17.5 10.5C17.5 9.96957 17.7107 9.46086 18.0858 9.08579C18.4609 8.71071 18.9696 8.5 19.5 8.5C20.0304 8.5 20.5391 8.71071 20.9142 9.08579C21.2893 9.46086 21.5 9.96957 21.5 10.5ZM7.5 10.5C7.5 11.0304 7.28929 11.5391 6.91421 11.9142C6.53914 12.2893 6.03043 12.5 5.5 12.5C4.96957 12.5 4.46086 12.2893 4.08579 11.9142C3.71071 11.5391 3.5 11.0304 3.5 10.5C3.5 9.96957 3.71071 9.46086 4.08579 9.08579C4.46086 8.71071 4.96957 8.5 5.5 8.5C6.03043 8.5 6.53914 8.71071 6.91421 9.08579C7.28929 9.46086 7.5 9.96957 7.5 10.5Z" stroke="#6B6F80" stroke-width="1.5" stroke-linecap="round" stroke-linejoin="round"/>
</g>
</svg>
