<svg width="25" height="25" viewBox="0 0 25 25" fill="none" xmlns="http://www.w3.org/2000/svg">
<g id="Icon Left">
<path id="Vector" d="M12.5 4.854C13.0374 4.2447 13.7477 3.81351 14.5362 3.61779C15.3247 3.42208 16.1542 3.47112 16.9142 3.7584C17.6741 4.04568 18.3286 4.55757 18.7905 5.22596C19.2524 5.89435 19.4998 6.68754 19.4998 7.5C19.4998 8.31246 19.2524 9.10565 18.7905 9.77404C18.3286 10.4424 17.6741 10.9543 16.9142 11.2416C16.1542 11.5289 15.3247 11.5779 14.5362 11.3822C13.7477 11.1865 13.0374 10.7553 12.5 10.146M15.5 21.5H3.5V20.5C3.5 18.9087 4.13214 17.3826 5.25736 16.2574C6.38258 15.1321 7.9087 14.5 9.5 14.5C11.0913 14.5 12.6174 15.1321 13.7426 16.2574C14.8679 17.3826 15.5 18.9087 15.5 20.5V21.5ZM15.5 21.5H21.5V20.5C21.5001 19.4467 21.223 18.4119 20.6965 17.4997C20.1699 16.5875 19.4125 15.8299 18.5004 15.3032C17.5882 14.7765 16.5535 14.4992 15.5002 14.4992C14.4469 14.4991 13.4122 14.7764 12.5 15.303M13.5 7.5C13.5 8.56087 13.0786 9.57828 12.3284 10.3284C11.5783 11.0786 10.5609 11.5 9.5 11.5C8.43913 11.5 7.42172 11.0786 6.67157 10.3284C5.92143 9.57828 5.5 8.56087 5.5 7.5C5.5 6.43913 5.92143 5.42172 6.67157 4.67157C7.42172 3.92143 8.43913 3.5 9.5 3.5C10.5609 3.5 11.5783 3.92143 12.3284 4.67157C13.0786 5.42172 13.5 6.43913 13.5 7.5Z" stroke="#6B6F80" stroke-width="1.5" stroke-linecap="round" stroke-linejoin="round"/>
</g>
</svg>
