<svg width="25" height="25" viewBox="0 0 25 25" fill="none" xmlns="http://www.w3.org/2000/svg">
<g id="Icon Left">
<g id="Vector">
<path d="M15.3284 10.3284C16.0786 9.57828 16.5 8.56087 16.5 7.5C16.5 6.43913 16.0786 5.42172 15.3284 4.67157C14.5783 3.92143 13.5609 3.5 12.5 3.5C11.4391 3.5 10.4217 3.92143 9.67157 4.67157C8.92143 5.42172 8.5 6.43913 8.5 7.5C8.5 8.56087 8.92143 9.57828 9.67157 10.3284C10.4217 11.0786 11.4391 11.5 12.5 11.5C13.5609 11.5 14.5783 11.0786 15.3284 10.3284Z" stroke="#6B6F80" stroke-width="1.5" stroke-linecap="round" stroke-linejoin="round"/>
<path d="M7.55025 16.5503C8.86301 15.2375 10.6435 14.5 12.5 14.5C14.3565 14.5 16.137 15.2375 17.4497 16.5503C18.7625 17.863 19.5 19.6435 19.5 21.5H5.5C5.5 19.6435 6.2375 17.863 7.55025 16.5503Z" stroke="#6B6F80" stroke-width="1.5" stroke-linecap="round" stroke-linejoin="round"/>
</g>
</g>
</svg>
