<svg width="25" height="25" viewBox="0 0 25 25" fill="none" xmlns="http://www.w3.org/2000/svg">
<g id="Icon Left">
<path id="Vector" d="M14.175 4.817C13.749 3.061 11.251 3.061 10.825 4.817C10.549 5.952 9.249 6.49 8.253 5.882C6.709 4.942 4.943 6.709 5.883 8.252C6.0243 8.48375 6.10889 8.74559 6.12987 9.01621C6.15085 9.28683 6.10764 9.55859 6.00375 9.80935C5.89985 10.0601 5.73822 10.2828 5.532 10.4593C5.32578 10.6358 5.0808 10.7611 4.817 10.825C3.061 11.251 3.061 13.749 4.817 14.175C5.08056 14.2391 5.32529 14.3645 5.53127 14.5409C5.73726 14.7174 5.8987 14.94 6.00247 15.1906C6.10624 15.4412 6.14942 15.7128 6.12848 15.9832C6.10755 16.2537 6.0231 16.5153 5.882 16.747C4.942 18.291 6.709 20.057 8.252 19.117C8.48375 18.9757 8.74559 18.8911 9.01621 18.8701C9.28683 18.8491 9.55859 18.8924 9.80935 18.9963C10.0601 19.1001 10.2828 19.2618 10.4593 19.468C10.6358 19.6742 10.7611 19.9192 10.825 20.183C11.251 21.939 13.749 21.939 14.175 20.183C14.2391 19.9194 14.3645 19.6747 14.5409 19.4687C14.7174 19.2627 14.94 19.1013 15.1906 18.9975C15.4412 18.8938 15.7128 18.8506 15.9832 18.8715C16.2537 18.8924 16.5153 18.9769 16.747 19.118C18.291 20.058 20.057 18.291 19.117 16.748C18.9757 16.5162 18.8911 16.2544 18.8701 15.9838C18.8491 15.7132 18.8924 15.4414 18.9963 15.1907C19.1001 14.9399 19.2618 14.7172 19.468 14.5407C19.6742 14.3642 19.9192 14.2389 20.183 14.175C21.939 13.749 21.939 11.251 20.183 10.825C19.9194 10.7609 19.6747 10.6355 19.4687 10.4591C19.2627 10.2826 19.1013 10.06 18.9975 9.80938C18.8938 9.55877 18.8506 9.28721 18.8715 9.01677C18.8924 8.74634 18.9769 8.48466 19.118 8.253C20.058 6.709 18.291 4.943 16.748 5.883C16.5162 6.0243 16.2544 6.10889 15.9838 6.12987C15.7132 6.15085 15.4414 6.10764 15.1907 6.00375C14.9399 5.89985 14.7172 5.73822 14.5407 5.532C14.3642 5.32578 14.2389 5.0808 14.175 4.817Z" stroke="#6B6F80" stroke-width="1.5" stroke-linecap="round" stroke-linejoin="round"/>
<path id="Vector_2" d="M14.6213 14.6213C15.1839 14.0587 15.5 13.2956 15.5 12.5C15.5 11.7044 15.1839 10.9413 14.6213 10.3787C14.0587 9.81607 13.2956 9.5 12.5 9.5C11.7044 9.5 10.9413 9.81607 10.3787 10.3787C9.81607 10.9413 9.5 11.7044 9.5 12.5C9.5 13.2956 9.81607 14.0587 10.3787 14.6213C10.9413 15.1839 11.7044 15.5 12.5 15.5C13.2956 15.5 14.0587 15.1839 14.6213 14.6213Z" stroke="#6B6F80" stroke-width="1.5" stroke-linecap="round" stroke-linejoin="round"/>
</g>
</svg>
