<svg width="25" height="25" viewBox="0 0 25 25" fill="none" xmlns="http://www.w3.org/2000/svg">
<g id="Icon Left">
<g id="Vector">
<path d="M8.91421 18.9142C9.28929 18.5391 9.5 18.0304 9.5 17.5C9.5 16.9696 9.28929 16.4609 8.91421 16.0858C8.53914 15.7107 8.03043 15.5 7.5 15.5C6.96957 15.5 6.46086 15.7107 6.08579 16.0858C5.71071 16.4609 5.5 16.9696 5.5 17.5C5.5 18.0304 5.71071 18.5391 6.08579 18.9142C6.46086 19.2893 6.96957 19.5 7.5 19.5C8.03043 19.5 8.53914 19.2893 8.91421 18.9142Z" stroke="#6B6F80" stroke-width="1.5"/>
<path d="M18.9142 18.9142C19.2893 18.5391 19.5 18.0304 19.5 17.5C19.5 16.9696 19.2893 16.4609 18.9142 16.0858C18.5391 15.7107 18.0304 15.5 17.5 15.5C16.9696 15.5 16.4609 15.7107 16.0858 16.0858C15.7107 16.4609 15.5 16.9696 15.5 17.5C15.5 18.0304 15.7107 18.5391 16.0858 18.9142C16.4609 19.2893 16.9696 19.5 17.5 19.5C18.0304 19.5 18.5391 19.2893 18.9142 18.9142Z" stroke="#6B6F80" stroke-width="1.5"/>
</g>
<path id="Vector_2" d="M13.5 16.5V6.5C13.5 6.23478 13.3946 5.98043 13.2071 5.79289C13.0196 5.60536 12.7652 5.5 12.5 5.5H4.5C4.23478 5.5 3.98043 5.60536 3.79289 5.79289C3.60536 5.98043 3.5 6.23478 3.5 6.5V16.5C3.5 16.7652 3.60536 17.0196 3.79289 17.2071C3.98043 17.3946 4.23478 17.5 4.5 17.5H5.5M13.5 16.5C13.5 16.7652 13.3946 17.0196 13.2071 17.2071C13.0196 17.3946 12.7652 17.5 12.5 17.5H9.5M13.5 16.5V8.5C13.5 8.23478 13.6054 7.98043 13.7929 7.79289C13.9804 7.60536 14.2348 7.5 14.5 7.5H17.086C17.3512 7.50006 17.6055 7.60545 17.793 7.793L21.207 11.207C21.3946 11.3945 21.4999 11.6488 21.5 11.914V16.5C21.5 16.7652 21.3946 17.0196 21.2071 17.2071C21.0196 17.3946 20.7652 17.5 20.5 17.5H19.5M13.5 16.5C13.5 16.7652 13.6054 17.0196 13.7929 17.2071C13.9804 17.3946 14.2348 17.5 14.5 17.5H15.5M5.5 17.5C5.5 18.0304 5.71071 18.5391 6.08579 18.9142C6.46086 19.2893 6.96957 19.5 7.5 19.5C8.03043 19.5 8.53914 19.2893 8.91421 18.9142C9.28929 18.5391 9.5 18.0304 9.5 17.5M5.5 17.5C5.5 16.9696 5.71071 16.4609 6.08579 16.0858C6.46086 15.7107 6.96957 15.5 7.5 15.5C8.03043 15.5 8.53914 15.7107 8.91421 16.0858C9.28929 16.4609 9.5 16.9696 9.5 17.5M19.5 17.5C19.5 18.0304 19.2893 18.5391 18.9142 18.9142C18.5391 19.2893 18.0304 19.5 17.5 19.5C16.9696 19.5 16.4609 19.2893 16.0858 18.9142C15.7107 18.5391 15.5 18.0304 15.5 17.5M19.5 17.5C19.5 16.9696 19.2893 16.4609 18.9142 16.0858C18.5391 15.7107 18.0304 15.5 17.5 15.5C16.9696 15.5 16.4609 15.7107 16.0858 16.0858C15.7107 16.4609 15.5 16.9696 15.5 17.5" stroke="#6B6F80" stroke-width="1.5" stroke-linecap="round" stroke-linejoin="round"/>
</g>
</svg>
